<?xml version="1.0" encoding="UTF-8" standalone="no"?>
<svg
   xmlns:dc="http://purl.org/dc/elements/1.1/"
   xmlns:cc="http://creativecommons.org/ns#"
   xmlns:rdf="http://www.w3.org/1999/02/22-rdf-syntax-ns#"
   xmlns:svg="http://www.w3.org/2000/svg"
   xmlns="http://www.w3.org/2000/svg"
   xmlns:sodipodi="http://sodipodi.sourceforge.net/DTD/sodipodi-0.dtd"
   xmlns:inkscape="http://www.inkscape.org/namespaces/inkscape"
   width="210mm"
   height="297mm"
   viewBox="-10 0 1050 1485"
   version="1.1"
   id="svg32"
   inkscape:version="1.0.1 (3bc2e813f5, 2020-09-07)"
   sodipodi:docname="prohabit_linker_on_red.svg">
  <defs
     id="defs26" />
  <sodipodi:namedview
     id="base"
     pagecolor="#ffffff"
     bordercolor="#666666"
     borderopacity="1.0"
     inkscape:pageopacity="0.0"
     inkscape:pageshadow="2"
     inkscape:zoom="0.5"
     inkscape:cx="26.255099"
     inkscape:cy="524.67458"
     inkscape:document-units="mm"
     inkscape:current-layer="layer1"
     inkscape:document-rotation="0"
     showgrid="false"
     inkscape:window-width="1920"
     inkscape:window-height="1005"
     inkscape:window-x="-9"
     inkscape:window-y="-9"
     inkscape:window-maximized="1" />
  <metadata
     id="metadata29">
    <rdf:RDF>
      <cc:Work
         rdf:about="">
        <dc:format>image/svg+xml</dc:format>
        <dc:type
           rdf:resource="http://purl.org/dc/dcmitype/StillImage" />
        <dc:title></dc:title>
      </cc:Work>
    </rdf:RDF>
  </metadata>
  <g
     inkscape:label="Layer 1"
     inkscape:groupmode="layer"
     id="layer1">
    <path
       style="fill:#ff0000;stroke-width:0.538136"
       d="M 0.06278433,22.451787 V -0.41897333 H 28.045833 56.028883 V 22.451787 45.322547 H 28.045833 0.06278433 Z M 54.414473,22.989917 V 2.2716967 l -11.97351,0.0236 c -10.44902,0.0206 -11.72583,0.11214 -10.0282,0.71881 3.00089,1.07239 5.17846,2.86125 6.75246,5.54709 3.13139,5.3433103 1.25056,12.0189203 -4.36448,15.4907503 -2.28442,1.41248 -3.14107,1.62863 -6.45452,1.62863 -7.32693,0 -12.157414,-4.12361 -12.578579,-10.73788 -0.357331,-5.6117903 2.466169,-9.8809003 7.840449,-11.8547203 1.81982,-0.66836 0.85025,-0.74415 -9.957386,-0.77838 L 1.6771913,2.2716967 V 22.989917 43.708137 H 28.045833 54.414473 Z M 8.4307963,40.794207 c 0.233758,-1.24604 0.15613,-1.92928 -0.219199,-1.92928 -0.319625,0 -0.474167,0.3027 -0.343426,0.67266 0.13074,0.36997 -0.382345,1.12372 -1.140191,1.67501 -1.056902,0.76883 -1.52365,0.85441 -2.00354,0.36737 -0.476452,-0.48355 -0.401077,-0.80087 0.316098,-1.33072 1.170242,-0.8646 1.203915,-1.38432 0.08969,-1.38432 -0.468626,0 -0.75061,-0.30271 -0.62663,-0.67267 0.211412,-0.63088 0.955425,-0.66764 8.8780417,-0.43861 1.324301,0.0383 1.713998,1.11128 0.403602,1.11128 -1.07347,0 -1.032507,0.87466 0.06061,1.29413 0.694951,0.26667 0.73792,0.48952 0.215721,1.11873 -0.5682,0.68464 -0.809627,0.66689 -1.876682,-0.138 -0.673526,-0.50804 -1.107934,-1.22772 -0.96535,-1.59929 0.142584,-0.37157 0.0065,-0.67557 -0.302372,-0.67557 -0.308887,0 -0.637497,0.78504 -0.730244,1.74453 -0.113482,1.17402 -0.4873917,1.80495 -1.1433447,1.92928 -0.845109,0.16019 -0.926589,-0.0718 -0.61278,-1.74453 z m 23.3826567,-1.25662 -8e-4,-2.82521 h 3.49789 3.49788 v 2.83555 2.83555 l -3.49722,-0.0103 -3.49721,-0.0104 z m 5.38068,-0.13453 c 0,-0.87127 -0.35875,-1.07627 -1.88347,-1.07627 -1.52471,0 -1.88347,0.205 -1.88347,1.07627 0,0.87127 0.35876,1.07627 1.88347,1.07627 1.52472,0 1.88347,-0.205 1.88347,-1.07627 z m 5.9195,-2.9149 c 0,-5.18205 0.13614,-6.2334 0.8072,-6.2334 0.44396,0 0.8072,-0.33734 0.8072,-0.74963 0,-0.4123 0.36324,-0.88902 0.8072,-1.05938 0.56229,-0.21578 0.8201,0.0525 0.84969,0.88416 0.0234,0.65665 0.16463,0.89121 0.31391,0.52124 0.17026,-0.42194 1.35793,-0.67267 3.18633,-0.67267 h 2.9149 v 6.40006 c 0,5.48214 -0.12889,6.44951 -0.89871,6.74492 -1.28764,0.49411 -1.76752,-0.64184 -0.97282,-2.30282 0.47242,-0.98737 0.54465,-2.16822 0.23529,-3.84639 l -0.44641,-2.42161 0.1029,2.54893 c 0.0658,1.63134 -0.14045,2.6423 -0.57309,2.80832 -0.37178,0.14267 -0.67597,0.0106 -0.67597,-0.29361 0,-0.30415 -0.24216,-0.40334 -0.53813,-0.22042 -0.29598,0.18292 -0.53814,0.9237 -0.53814,1.64616 0,0.72247 -0.24216,1.31358 -0.53813,1.31358 -0.29598,0 -0.53814,-0.70381 -0.53814,-1.56402 0,-1.29909 -0.18232,-1.51635 -1.07627,-1.28258 -0.99706,0.26074 -1.07627,0.0165 -1.07627,-3.31821 v -3.59966 l 2.82521,0.13087 c 1.55386,0.072 2.88203,-0.0921 2.95147,-0.36459 0.0695,-0.2725 -1.26244,-0.50117 -2.95974,-0.50815 l -3.08601,-0.0127 -0.26907,5.61995 c -0.18273,3.81677 -0.48489,5.69135 -0.94174,5.8425 -0.51223,0.16947 -0.67267,-1.26419 -0.67266,-6.01085 z m 6.45762,0.22422 c 0,-0.29597 -0.25645,-0.53813 -0.56989,-0.53813 -0.31344,0 -0.42023,0.24216 -0.23731,0.53813 0.18292,0.29598 0.43937,0.53814 0.56989,0.53814 0.13052,0 0.23731,-0.24216 0.23731,-0.53814 z m -2.15254,-2.69068 c 0,-0.29597 -0.25645,-0.53813 -0.5699,-0.53813 -0.31344,0 -0.42023,0.24216 -0.2373,0.53813 0.18292,0.29598 0.43937,0.53814 0.56989,0.53814 0.13052,0 0.23731,-0.24216 0.23731,-0.53814 z m 2.15254,0 c 0,-0.29597 -0.24216,-0.53813 -0.53813,-0.53813 -0.29598,0 -0.53814,0.24216 -0.53814,0.53813 0,0.29598 0.24216,0.53814 0.53814,0.53814 0.29597,0 0.53813,-0.24216 0.53813,-0.53814 z m -32.28393,7.62359 c -0.991232,-0.32785 -0.560022,-1.70409 0.53394,-1.70409 0.98658,0 1.07627,-0.35876 1.07627,-4.30509 0,-3.46798 0.15695,-4.30508 0.8072,-4.30508 0.65025,0 0.8072,0.8371 0.8072,4.30508 0,3.46799 0.15696,4.30509 0.80721,4.30509 0.66626,0 0.8072,-0.98659 0.8072,-5.65043 0,-4.66384 0.14094,-5.65042 0.8072,-5.65042 0.58071,0 0.80721,0.59396 0.80721,2.1168 0,1.90919 0.14513,2.13349 1.47987,2.28707 1.96626,0.22625 1.96626,1.72872 0,1.95497 -1.36628,0.1572 -1.47987,0.35341 -1.47987,2.55614 v 2.38587 h 2.192 c 1.75939,0 2.15766,0.1776 2.01801,0.89988 -0.14693,0.75989 -0.94772,0.9064 -5.14755,0.94174 -2.73545,0.023 -5.2176,-0.0389 -5.51589,-0.13753 z M 5.9822753,36.174247 c 0,-0.29598 0.711433,-0.53814 1.580962,-0.53814 1.201322,0 1.563117,-0.23691 1.506646,-0.98658 -0.08131,-1.07941 -1.473201,-1.39312 -1.473201,-0.33204 0,0.51669 -2.577637,0.72981 -3.644821,0.30134 -0.08082,-0.0325 0.2773,-0.70646 0.795815,-1.49781 0.690797,-1.05429 0.766022,-1.49774 0.281473,-1.65925 -1.080409,-0.36014 -0.751058,-1.74515 0.414991,-1.74515 0.597928,0 1.076271,-0.35876 1.076271,-0.8072 0,-1.07284 0.327006,-1.01834 1.614407,0.26906 1.315691,1.3157 1.380311,2.15255 0.166213,2.15255 -0.792862,0 -0.775976,0.098 0.131126,0.76133 1.111499,0.81275 1.9815287,0.19403 1.49822,-1.06545 -0.263444,-0.68653 1.3367167,-2.9247 2.0909857,-2.9247 0.230196,0 0.418539,0.36324 0.418539,0.80721 0,0.44844 0.478343,0.8072 1.076271,0.8072 1.322069,0 1.454535,1.60722 0.134534,1.63231 -0.804899,0.0153 -0.765622,0.16482 0.270316,1.02901 0.741522,0.61858 1.084763,1.34281 0.884163,1.86557 -0.392039,1.02163 -0.850898,1.07733 -1.719521,0.2087 -0.50226,-0.50226 -0.645763,-0.50226 -0.645763,0 0,0.35517 -0.363241,0.64577 -0.807203,0.64577 -0.443962,0 -0.807203,-0.25646 -0.807203,-0.5699 0,-0.31344 -0.242161,-0.42023 -0.538136,-0.23731 -1.0607487,0.65558 -0.5089397,1.34534 1.076271,1.34534 0.887924,0 1.614407,0.24216 1.614407,0.53814 0,0.30356 -1.524717,0.53813 -3.4978807,0.53813 -1.973164,0 -3.497882,-0.23457 -3.497882,-0.53813 z m 23.9437777,-1.08155 c -0.18472,-0.29888 0.39505,-1.15842 1.28837,-1.9101 0.89333,-0.75168 1.92638,-2.20228 2.29567,-3.22354 0.85112,-2.35372 1.6736,-2.3479 3.07173,0.0217 0.60962,1.03323 1.79187,2.30457 2.62724,2.82521 1.6605,1.03491 1.84002,3.0859 0.22838,2.60926 -1.44874,-0.42845 -7.58387,-0.53747 -7.97955,-0.14179 -0.52062,0.52061 -1.14381,0.44706 -1.53184,-0.18079 z m 6.10159,-2.93759 c -0.65362,-1.43454 -1.19925,-1.36047 -2.07836,0.28216 -0.49704,0.92873 -0.37772,1.0463 1.06184,1.0463 1.52914,0 1.58722,-0.0759 1.01652,-1.32846 z m -3.92851,-9.13773 c 1.02641,-0.42886 1.86619,-1.00817 1.86619,-1.28737 0,-0.2792 -1.46253,-1.86168 -3.25007,-3.51662 -2.87367,-2.66052 -3.37225,-2.93269 -4.30508,-2.35013 -0.63387,0.39585 -1.05502,1.25164 -1.05502,2.14382 0,1.2252 -0.23533,1.48496 -1.34534,1.48496 -1.02123,0 -1.35767,-0.29169 -1.39656,-1.2108 -0.21108,-4.98981 -0.39342,-7.7077 -0.5325,-7.9375 -0.0896,-0.14799 -0.31121,2.15254 -0.49255,5.11229 l -0.32969,5.38135 -0.10422,-6.02226 c -0.0573,-3.31225 -0.33574,-6.1653603 -0.61872,-6.3402503 -0.78133,-0.48289 -2.23674,2.0949403 -2.56515,4.5434103 -0.32863,2.45019 0.91334,6.34563 2.47326,7.75733 3.07437,2.78227 8.06468,3.74209 11.65545,2.24177 z m 5.39153,-4.85339 c 2.71628,-6.50098 -1.95537,-13.3739503 -9.1381,-13.4440503 -4.60452,-0.0449 -8.37989,2.36742 -4.43578,2.83433 1.05699,0.12513 1.43837,0.47505 1.43837,1.31972 0,1.2647703 3.02674,4.6985603 4.14159,4.6985603 0.38589,0 0.70163,-0.39289 0.70163,-0.87309 0,-0.73656 0.13364,-0.76219 0.85452,-0.16392 0.76429,0.63431 0.72168,0.75849 -0.40361,1.17614 -1.21037,0.44923 -1.13559,0.57717 1.97071,3.37174 1.77584,1.59764 3.42279,2.91424 3.65987,2.92578 0.23708,0.0115 0.78194,-0.81881 1.2108,-1.84521 z m -3.16658,-0.10697 c -0.68828,-0.68829 -0.34714,-1.23402 1.30566,-2.08872 2.06012,-1.06533 2.52248,-0.69521 1.35581,1.08534 -0.86945,1.32696 -1.93585,1.729 -2.66147,1.00338 z m -2.02213,-2.8015 -1.24447,-1.00771 2.12659,-1.16196 c 1.16963,-0.63908 1.60211,-1.02333 0.96107,-0.85388 -0.64103,0.16945 -1.338,0.029 -1.54881,-0.3121 -0.50388,-0.81529 0.88912,-1.65956 1.66953,-1.01188 0.33313,0.27647 0.73244,0.37594 0.88735,0.22103 0.15491,-0.15491 0.60025,0.48751 0.98965,1.4276 0.65226,1.57472 0.61092,1.78786 -0.52532,2.70793 -1.53213,1.24065 -1.77311,1.23999 -3.31559,-0.009 z m -0.78036,-2.79504 c -0.57918,-0.93713 0.0805,-1.1356 0.81853,-0.24627 0.42446,0.51143 0.46528,0.82021 0.10845,0.82021 -0.31475,0 -0.73189,-0.25828 -0.92698,-0.57394 z m -0.78508,-3.1930103 c -0.44396,-0.28691 -1.4005,-0.52537 -2.12564,-0.5299 -0.94788,-0.006 -1.15432,-0.17235 -0.7345,-0.59217 0.41982,-0.41982 1.05504,-0.34031 2.26017,0.28289 0.92193,0.47675 1.67624,0.98168 1.67624,1.12206 0,0.35464 -0.15131,0.31487 -1.07627,-0.28288 z m -6.04281,7.6348003 c 0.11715,-0.35147 -0.17041,-0.63904 -0.63904,-0.63904 -0.46863,0 -0.85205,0.38342 -0.85205,0.85205 0,0.95031 1.15848,0.78481 1.49109,-0.21301 z m 1.30722,-2.89921 c -0.50226,-0.50226 -0.64577,-0.35876 -0.64577,0.64576 0,1.00452 0.14351,1.14803 0.64577,0.64577 0.50226,-0.50226 0.50226,-0.78927 0,-1.29153 z"
       id="path22" />
  </g>
</svg>
